<svg width="1440" height="635" viewBox="0 0 1440 635" fill="none" xmlns="http://www.w3.org/2000/svg">
<path fill-rule="evenodd" clip-rule="evenodd" d="M988.102 9.36963V9.37201L988.103 9.37561C996.548 37.4595 1004.24 63.048 1012.08 85.1993C1069.41 247.233 1163.12 262.064 1276.88 280.068C1326.56 287.929 1380.05 296.394 1436.01 317.986C1479.32 334.696 1542.39 377.468 1623.1 432.193C1885.48 610.119 2334.2 914.391 2895.55 860.063C3027.91 847.252 3107.99 812.136 3149.25 762.664C3017.1 967.495 2651.85 1196.66 2029.47 865.115C1759.11 721.088 1751.61 861.791 1744.22 1000.32C1737.55 1125.29 1730.98 1248.48 1531.66 1159.33C1139.76 984.056 1452.01 1433.49 1660.96 1734.25C1676.1 1756.05 1690.7 1777.06 1704.45 1797H3198.71V827.016V655.569C3208.47 619.088 3208.39 588.285 3198.71 568.37V655.569C3193.72 674.249 3186.15 694.418 3175.97 715.376C3237.4 535.539 2954.99 237.142 2746.57 66.6204C2704.31 15.2403 2699.46 31.4009 2686.47 74.6805C2657.21 172.16 2586.66 407.207 1954.42 317.986C1467.3 249.244 1662.36 228.065 1774.43 215.896C1799.33 213.192 1820.14 210.934 1828.45 208.697C1897.49 190.118 2003.26 69.7677 1863.58 31.6472C1561.41 -50.8178 1416.25 -369.903 1354.45 -505.768C1325.57 -569.252 1314.89 -592.734 1314.89 -533.38C1314.89 -91.1895 1592.54 2.35411 1674.11 29.8361L1674.14 29.8463C1676.02 30.4806 1677.8 31.0798 1679.47 31.6472C1753.35 56.7838 1875.69 140.938 1570.46 140.938C1265.23 140.938 1220.41 -52.5059 1283.4 -208.79C1346.38 -365.074 1188.52 -886.042 641.412 -974.847C-84.3009 -1092.64 -263.684 -745.896 -224.117 -658.829C759.65 -750.342 907.798 -257.68 988.102 9.36963ZM-1107.11 -100.482C-902.003 -53.4884 -447.71 -7.58693 -271.355 -199.937C-50.9109 -440.375 320.562 -410.711 448.5 -140.5C531.241 34.2528 419 197 301.558 228.479C194.459 257.186 97.2231 218.289 27.4504 190.379L27.4489 190.378C21.0435 187.816 14.8696 185.346 8.94092 183.03C2.27452 168.453 -17.183 160.961 -44.6708 158.49C-74.4838 141.73 -121.793 111.24 -203.526 51.4296C-357.352 -61.1389 -483.32 32.8503 -271.355 111.54C-263.078 114.612 -254.867 117.636 -246.75 120.626C-207.592 135.05 -170.615 148.67 -138.881 163.036C-237.931 176.248 -360.883 210.116 -425.627 229.064C-302.231 315.562 -134.897 368.013 -36.2808 274.882C-42.1358 323.881 -96.0788 389.273 -224.117 484.217C-557.206 731.212 -222.906 732.303 -105.416 707.167C-58.7928 697.192 -56.2298 672.761 -53.1458 643.366C-48.4578 598.686 -42.5658 542.539 121.085 508.26C392.4 451.429 1182.12 392.413 1436.48 636.129C1690.84 879.845 1404.99 1217.55 1063.42 1047.06C959.648 995.26 853.302 910.775 755.968 833.45L755.966 833.449C532.932 656.263 357.214 516.669 368.176 894.052C380.773 1327.71 782.013 1438.32 981.059 1439.41L1427.52 1797H-8.26746C-62.0529 1797 -80.9758 1742.56 -109.283 1661.13C-188.687 1432.7 -341.926 991.86 -1545.57 944.325C-1823.31 933.357 -1406.72 846.737 -1267.83 827.016C-632.772 736.841 -476.187 702.587 -1004.15 568.37C-1485.48 446.009 -1622.72 -280.26 -1107.11 -100.482Z" fill="url(#paint0_linear_412_1665)"/>
<defs>
<linearGradient id="paint0_linear_412_1665" x1="49.5198" y1="-116.217" x2="1031.93" y2="1317.15" gradientUnits="userSpaceOnUse">
<stop stop-color="#6414EE"/>
<stop offset="1" stop-color="#0069FF" stop-opacity="0"/>
</linearGradient>
</defs>
</svg>
